<svg width="518" height="118" viewBox="0 0 518 118" fill="none" xmlns="http://www.w3.org/2000/svg">
<path d="M4.4697 0L0 4.4697V29.5L4.4697 33.9697H29.5L33.9697 29.5V4.4697L29.5 0H4.4697Z" fill="white"/>
<path d="M88.5 84.0303L84.0303 88.5V113.53L88.5 118H113.53L118 113.53V88.5L113.53 84.0303H88.5Z" fill="white"/>
<path d="M33.9697 59C33.9697 68.3805 26.3653 75.9848 16.9848 75.9848C7.60438 75.9848 0 68.3805 0 59C0 49.6195 7.60438 42.0151 16.9848 42.0151C26.3653 42.0151 33.9697 49.6195 33.9697 59Z" fill="white"/>
<path d="M75.9848 59C75.9848 68.3805 68.3805 75.9848 59 75.9848C49.6195 75.9848 42.0151 68.3805 42.0151 59C42.0151 49.6195 49.6195 42.0151 59 42.0151C68.3805 42.0151 75.9848 49.6195 75.9848 59Z" fill="white"/>
<path d="M118 59C118 68.3805 110.396 75.9848 101.015 75.9848C91.6346 75.9848 84.0303 68.3805 84.0303 59C84.0303 49.6195 91.6346 42.0151 101.015 42.0151C110.396 42.0151 118 49.6195 118 59Z" fill="white"/>
<path fill-rule="evenodd" clip-rule="evenodd" d="M324.602 83.0898C325.319 82.3686 326.828 82.8425 326.828 83.8591V85.9964C326.828 86.5486 327.276 86.9964 327.828 86.9964H333C333.552 86.9964 334 86.5486 334 85.9964V48.2912C334 47.7389 333.552 47.2912 333 47.2912H327.828C327.276 47.2912 326.828 47.7389 326.824 48.2911C326.821 48.7208 326.817 49.1824 326.813 49.6435C326.798 51.3397 326.783 53.0298 326.828 53.1017C323.733 48.0595 318.407 46.0019 312.796 46C309.108 45.9987 305.385 46.7208 302.194 48.7323C290.82 55.9004 290.012 74.4482 299.699 83.3893C306.468 89.6369 318.202 89.5336 324.602 83.0898ZM311.237 53.6737C299.822 56.1797 297.355 73.5302 307.807 79.2012C310.739 80.7923 313.993 80.8523 317.161 80.1531C326.125 78.1753 328.719 66.268 324.163 58.9942C322.41 56.1961 319.625 54.5156 316.538 53.7483C314.919 53.346 312.868 53.3157 311.237 53.6737Z" fill="white"/>
<path d="M158.142 85.3464C153.408 82.4908 150.969 77.5644 150.121 72.2284C150.043 71.7434 150.347 71.2837 150.816 71.1375C152.223 70.6986 153.616 70.2053 155.01 69.727C155.268 69.6387 155.663 69.518 156.025 69.4105C156.515 69.2646 157.034 69.5195 157.221 69.9962C157.453 70.5907 157.743 71.3444 157.858 71.7027C158.29 73.05 158.863 74.3693 159.685 75.5185C163.336 80.6227 171.98 82.6372 176.054 76.7891C179.374 72.0232 176.338 67.2468 172.233 64.3983C168.732 61.9679 164.897 60.0098 161.273 57.7759C158.631 56.1469 155.886 54.3993 154.217 51.6697C153.193 49.9945 152.577 48.1864 152.193 46.264C151.873 44.6592 151.808 43.1141 152.064 41.4942C153.871 30.0762 167.234 26.5508 176.618 30.6442C181.218 32.6511 183.511 36.6668 185.073 41.1896C185.252 41.7084 184.966 42.269 184.446 42.4464C182.632 43.0666 180.815 43.7256 178.957 44.18C178.505 44.2903 178.046 44.0575 177.841 43.6406C176.239 40.3872 174.113 37.3866 170.355 36.5711C165.206 35.454 158.872 38.9131 160.489 44.992C161.63 49.2797 166.311 51.2414 169.728 53.3232C176.804 57.6344 185.082 61.7154 185.958 71.0667C186.101 72.5921 185.856 74.3423 185.537 75.8365C183.019 87.6267 167.435 90.9525 158.142 85.3464Z" fill="white"/>
<path d="M374.142 85.3464C369.408 82.4908 366.969 77.5644 366.121 72.2284C366.043 71.7434 366.347 71.2837 366.816 71.1375C368.223 70.6986 369.616 70.2053 371.01 69.727C371.268 69.6387 371.663 69.518 372.025 69.4105C372.515 69.2646 373.034 69.5195 373.221 69.9962C373.453 70.5907 373.743 71.3444 373.858 71.7027C374.29 73.05 374.863 74.3693 375.685 75.5185C379.336 80.6227 387.98 82.6372 392.054 76.7891C395.374 72.0232 392.338 67.2468 388.233 64.3983C384.732 61.9679 380.897 60.0098 377.273 57.7759C374.631 56.1469 371.886 54.3993 370.217 51.6697C369.193 49.9945 368.577 48.1864 368.193 46.264C367.873 44.6592 367.808 43.1141 368.064 41.4942C369.871 30.0762 383.234 26.5508 392.618 30.6442C397.218 32.6511 399.511 36.6668 401.073 41.1896C401.252 41.7084 400.966 42.269 400.446 42.4464C398.632 43.0666 396.815 43.7256 394.957 44.18C394.505 44.2903 394.046 44.0575 393.841 43.6406C392.239 40.3872 390.113 37.3866 386.355 36.5711C381.206 35.454 374.872 38.9131 376.489 44.992C377.63 49.2797 382.311 51.2414 385.728 53.3232C392.804 57.6344 401.082 61.7154 401.958 71.0667C402.101 72.5921 401.856 74.3423 401.537 75.8365C399.019 87.6267 383.435 90.9525 374.142 85.3464Z" fill="white"/>
<path fill-rule="evenodd" clip-rule="evenodd" d="M208.949 46.2703C205.827 46.774 202.841 47.9583 200.22 49.7869C190.507 56.5617 189.411 72.3161 196.884 81.2254C199.792 84.693 204.023 86.727 208.325 87.5301C210.386 87.9145 212.473 88.1831 214.56 87.8473C218.468 87.2184 222.323 86.2907 225.472 83.6519C234.693 75.9253 235.719 60.2859 227.019 51.6329C222.42 47.0592 215.171 45.2666 208.949 46.2703ZM212.092 53.4154C210.132 53.4895 208.237 53.9013 206.48 54.8329C199.071 58.7622 198.198 70.6574 203.457 76.7171C205.798 79.416 209.573 80.7215 213.027 80.5811C226.367 80.0388 229.449 59.0565 217.08 54.2114C215.52 53.6003 213.761 53.3527 212.092 53.4154Z" fill="white"/>
<path fill-rule="evenodd" clip-rule="evenodd" d="M424.949 46.2703C421.827 46.774 418.841 47.9583 416.22 49.7869C406.507 56.5617 405.411 72.3161 412.884 81.2254C415.792 84.693 420.023 86.727 424.325 87.5301C426.386 87.9145 428.473 88.1831 430.56 87.8473C434.468 87.2184 438.323 86.2907 441.472 83.6519C450.693 75.9253 451.719 60.2859 443.019 51.6329C438.42 47.0592 431.171 45.2666 424.949 46.2703ZM428.092 53.4154C426.132 53.4895 424.237 53.9013 422.48 54.8329C415.071 58.7622 414.198 70.6574 419.457 76.7171C421.798 79.416 425.573 80.7215 429.027 80.5811C442.367 80.0388 445.449 59.0565 433.08 54.2114C431.52 53.6003 429.761 53.3527 428.092 53.4154Z" fill="white"/>
<path fill-rule="evenodd" clip-rule="evenodd" d="M281 41.0971C283.761 41.0971 286 38.8368 286 36.0486C286 33.2604 283.761 31 281 31C278.239 31 276 33.2604 276 36.0486C276 38.8368 278.239 41.0971 281 41.0971ZM284.032 88C284.585 88 285.032 87.5523 285.032 87V48.9371C285.032 48.3849 284.585 47.9371 284.032 47.9371H277.968C277.415 47.9371 276.968 48.3849 276.968 48.9371V87C276.968 87.5523 277.415 88 277.968 88H284.032Z" fill="white"/>
<path d="M344 87V30C344 29.4477 344.448 29 345 29H351.482C352.034 29 352.482 29.4477 352.482 30V79.5838C352.482 80.1361 352.93 80.5838 353.482 80.5838H362C362.552 80.5838 363 81.0315 363 81.5838V87C363 87.5523 362.552 88 362 88H345C344.448 88 344 87.5523 344 87Z" fill="white"/>
<path d="M518 81.5838V87C518 87.5523 517.552 88 517 88H510.5C505 88 499 82 499 75V30C499 29.4477 499.448 29 500 29H506.482C507.034 29 507.482 29.4477 507.482 30V71.5C507.482 80.5646 510.23 80.6011 516.997 80.5854C517.549 80.5841 518 81.0315 518 81.5838Z" fill="white"/>
<path d="M455 87V47C455 46.4477 455.448 46 456 46H462.922C463.474 46 463.922 46.4477 463.922 47V79.1463C463.922 79.6986 464.369 80.1463 464.922 80.1463H479.907C480.459 80.1463 480.907 79.6986 480.907 79.1463V47C480.907 46.4477 481.355 46 481.907 46H489C489.552 46 490 46.4477 490 47V87C490 87.5523 489.552 88 489 88H456C455.448 88 455 87.5523 455 87Z" fill="white"/>
<path d="M242 46H268C268.552 46 269 46.4477 269 47V53C269 53.5523 268.552 54 268 54H250.5C249.948 54 249.5 54.4477 249.5 55V79C249.5 79.5523 249.948 80 250.5 80H269C269.552 80 270 80.4477 270 81V87C270 87.5523 269.552 88 269 88H242C241.448 88 241 87.5523 241 87V47C241 46.4477 241.448 46 242 46Z" fill="white"/>
</svg>
